<?xml version="1.0" encoding="UTF-8" standalone="no"?>
<!DOCTYPE svg PUBLIC "-//W3C//DTD SVG 1.1//EN" "http://www.w3.org/Graphics/SVG/1.1/DTD/svg11.dtd">
<svg width="100%" height="100%" viewBox="0 0 319 183" version="1.1" xmlns="http://www.w3.org/2000/svg" xmlns:xlink="http://www.w3.org/1999/xlink" xml:space="preserve" xmlns:serif="http://www.serif.com/" style="fill-rule:evenodd;clip-rule:evenodd;stroke-linecap:round;stroke-linejoin:round;stroke-miterlimit:1.5;">
    <g transform="matrix(0.967571,0,0,0.967571,-82.7585,-150.857)">
        <path d="M254.399,243.783C253.905,244.639 252.905,245.065 251.945,244.829C250.985,244.593 250.297,243.751 250.255,242.764C249.92,233.635 245.039,224.873 236.551,219.972C223.431,212.398 206.629,216.9 199.054,230.02C199.054,230.02 195.013,237.019 191.013,243.948C190.515,244.809 189.505,245.234 188.542,244.989C187.578,244.744 186.894,243.889 186.868,242.895C186.575,233.719 181.688,224.896 173.159,219.972C160.039,212.398 143.238,216.9 135.663,230.02L99.545,292.577C91.97,305.697 96.472,322.499 109.592,330.073C122.712,337.648 139.514,333.146 147.089,320.026C147.089,320.026 151.13,313.027 155.131,306.098C155.629,305.237 156.638,304.811 157.602,305.056C158.565,305.301 159.249,306.157 159.275,307.151C159.569,316.327 164.456,325.15 172.984,330.073C186.104,337.648 202.906,333.146 210.48,320.026C210.48,320.026 214.561,312.958 218.427,306.263C218.921,305.407 219.921,304.981 220.881,305.217C221.841,305.453 222.53,306.294 222.571,307.282C222.906,316.41 227.787,325.173 236.275,330.073C249.395,337.648 266.197,333.146 273.772,320.026C273.772,320.026 277.813,313.027 281.814,306.098C282.311,305.237 283.321,304.811 284.285,305.056C285.248,305.301 285.932,306.157 285.958,307.151C286.251,316.327 291.138,325.15 299.667,330.073C312.787,337.648 329.588,333.146 337.163,320.026C337.163,320.026 339.306,316.315 342.015,311.622C342.924,310.049 344.7,309.187 346.499,309.447C348.298,309.707 349.757,311.036 350.183,312.803C351.841,319.839 356.309,326.177 363.058,330.073C376.178,337.648 392.98,333.146 400.555,320.026C408.13,306.906 403.628,290.105 390.508,282.53C383.759,278.633 376.036,277.932 369.096,279.956C367.377,280.463 365.522,279.873 364.413,278.465C363.304,277.056 363.165,275.115 364.061,273.563C368.772,265.279 373.281,257.469 373.281,257.469C380.856,244.349 376.354,227.547 363.234,219.972C354.705,215.049 344.621,215.228 336.527,219.56C335.654,220.034 334.572,219.87 333.879,219.159C333.185,218.447 333.049,217.361 333.546,216.501C336.325,211.68 338.783,207.423 338.783,207.423C346.358,194.303 341.856,177.501 328.736,169.927C315.616,162.352 298.815,166.854 291.24,179.974C291.24,179.974 266.657,222.553 254.399,243.783Z" style="fill:none;stroke:white;stroke-width:20.67px;"/>
    </g>
</svg>
