<?xml version="1.0" encoding="UTF-8" standalone="no"?>
<!DOCTYPE svg PUBLIC "-//W3C//DTD SVG 1.1//EN" "http://www.w3.org/Graphics/SVG/1.1/DTD/svg11.dtd">
<svg width="100%" height="100%" viewBox="0 0 512 252" version="1.1" xmlns="http://www.w3.org/2000/svg" xmlns:xlink="http://www.w3.org/1999/xlink" xml:space="preserve" xmlns:serif="http://www.serif.com/" style="fill-rule:evenodd;clip-rule:evenodd;stroke-linejoin:round;stroke-miterlimit:2;">
    <g transform="matrix(1,0,0,1,-385,-441)">
        <path d="M385.89,692.859L577.986,692.859L577.986,681.882L564.784,681.882L564.784,644.204L575.019,644.204L575.019,633.227L515.24,633.227L515.24,644.204L525.475,644.204L525.475,673.872L537.342,673.872L537.342,644.204L552.917,644.204L552.917,681.882L385.89,681.882L385.89,692.859ZM688.454,596.292C684.152,596.292 681.779,593.918 681.779,589.616L681.779,551.346L693.943,551.346L693.943,585.315L763.06,585.315C764.254,585.315 765.398,585.789 766.242,586.633C767.086,587.477 767.56,588.621 767.56,589.815L767.56,655.181C767.56,671.795 772.159,679.212 779.279,681.882L896.465,681.882L896.465,692.859L778.982,692.859L778.982,692.837C765.773,691.819 755.397,681.704 755.397,657.851L755.397,596.292L688.454,596.292ZM651.413,692.84L651.413,692.859L696.062,692.859C713.566,692.859 726.323,680.547 726.323,663.488C726.323,646.281 713.566,633.969 696.062,633.969C678.707,633.969 665.95,646.281 665.95,663.488C665.95,667.493 666.84,671.053 668.62,673.872L680.932,673.872C679.003,670.905 678.113,667.642 678.113,663.488C678.113,652.66 685.679,644.946 696.062,644.946C706.594,644.946 714.159,652.66 714.159,663.488C714.159,674.168 706.594,681.882 696.062,681.882L651.709,681.882C643.699,680.102 639.991,674.168 639.991,660.818L639.991,600L639.711,554.312C639.711,550.011 637.782,548.082 633.481,548.082L581.118,548.082L581.118,559.059L627.992,559.059L628.124,600L628.124,663.191C628.124,682.051 636.759,691.837 651.413,692.84ZM601.868,633.079L584.068,633.079L584.068,644.056L601.868,644.056L601.868,692.859L613.735,692.859L613.735,600.89L601.868,600.89L601.868,633.079ZM404.877,664.378C423.716,663.488 438.253,655.923 444.78,643.759C451.307,655.478 465.547,662.895 483.941,663.785L483.941,653.105C462.877,651.769 450.862,641.534 450.862,624.921L450.862,612.46L438.55,612.46L438.55,624.921C438.55,641.683 426.238,652.066 404.877,653.401L404.877,664.378ZM797.969,664.378C816.808,663.488 831.345,655.923 837.872,643.759C844.399,655.478 858.639,662.895 877.033,663.785L877.033,653.105C855.969,651.769 843.954,641.534 843.954,624.921L843.954,612.46L831.642,612.46L831.642,624.921C831.642,641.683 819.33,652.066 797.969,653.401L797.969,664.378ZM654.989,534.287L713.968,534.287L713.968,566.031L726.132,566.031L726.132,534.287L776.269,534.287L776.269,523.31L655.138,523.31C643.271,523.31 639.711,515.448 639.711,502.691L639.711,485.781L660.478,485.781L660.478,474.804L639.711,474.804L639.711,441.428L627.547,441.428L627.547,503.136C627.547,523.903 637.189,534.287 654.989,534.287ZM556.494,523.31L480.634,523.31L480.634,499.131L468.471,499.131L468.471,523.31L415.515,523.31L415.515,534.287L615.235,534.287L615.235,523.31L574.443,523.31C568.657,523.31 565.691,520.343 565.691,513.371L565.691,475.397L553.527,475.397L553.527,512.778C553.527,518.415 554.565,521.233 556.494,523.31ZM695.871,460.415L683.707,460.415L683.707,500.318C683.707,504.62 686.081,506.993 690.382,506.993L751.2,506.993L751.2,496.016L695.871,496.016L695.871,460.415ZM434.502,499.428C452.895,498.241 467.432,490.083 474.404,477.029C481.228,489.638 495.468,497.648 513.565,498.834L513.565,488.154C492.501,486.671 480.486,474.656 480.486,455.668L480.486,443.653L468.174,443.653L468.174,455.668C468.174,474.952 455.862,486.967 434.502,488.451L434.502,499.428Z" style="fill:white;fill-rule:nonzero;"/>
    </g>
</svg>
